<!DOCTYPE svg PUBLIC "-//W3C//DTD SVG 20010904//EN" "http://www.w3.org/TR/2001/REC-SVG-20010904/DTD/svg10.dtd">
<svg version="1.0" xmlns="http://www.w3.org/2000/svg" width="20px" height="20px" viewBox="0 0 8760 9990" preserveAspectRatio="xMidYMid meet">
<g id="layer1" fill="#1abc9c" stroke="none">
 <path d="M1670 8293 c-160 -133 -484 -462 -611 -620 -589 -736 -922 -1541 -1036 -2508 -25 -215 -25 -835 0 -1050 116 -982 457 -1795 1066 -2545 102 -126 430 -457 556 -561 710 -591 1494 -918 2395 -999 148 -13 532 -13 680 0 450 41 841 134 1240 297 738 301 1378 806 1886 1488 462 620 780 1424 879 2220 57 462 43 1056 -35 1480 -87 476 -215 868 -420 1290 -216 444 -493 835 -848 1197 -139 142 -324 313 -339 313 -3 0 -16 -28 -29 -63 -122 -325 -608 -1109 -968 -1562 -113 -143 -335 -372 -511 -529 -66 -59 -239 -207 -385 -329 -146 -122 -302 -254 -346 -294 -91 -82 -199 -141 -308 -170 -88 -23 -124 -23 -264 2 -113 20 -151 34 -207 74 -16 12 -52 35 -80 51 -62 36 -196 165 -334 320 -58 66 -219 246 -356 400 -1078 1203 -1327 1555 -1476 2084 -16 57 -30 105 -31 107 -2 1 -55 -41 -118 -93z m-315 -2081 c69 -24 217 -126 274 -188 141 -154 265 -532 320 -974 36 -292 45 -448 45 -810 1 -378 -4 -439 -50 -598 -68 -234 -263 -513 -429 -611 -160 -96 -271 -92 -394 15 -101 88 -304 373 -441 619 l-73 130 -8 120 c-47 692 -60 1364 -29 1605 33 255 127 414 325 545 75 50 263 146 311 158 40 10 101 6 149 -11z m6512 -117 c141 -45 253 -124 396 -282 96 -105 110 -137 128 -298 18 -153 -8 -1135 -41 -1530 -21 -262 -105 -449 -333 -744 -121 -156 -175 -205 -284 -257 -150 -72 -156 -72 -335 37 -254 155 -360 275 -408 465 -44 173 -50 527 -15 1004 45 605 105 966 202 1199 60 146 127 229 247 306 52 33 210 107 251 118 48 12 120 5 192 -18z"/>
 </g>
<g id="layer2" fill="#f1df1a" stroke="none">
 <path d="M3740 9975 c-822 -68 -1355 -239 -1754 -564 -129 -104 -226 -249 -256 -380 -26 -112 11 -491 64 -670 91 -302 144 -433 255 -626 176 -307 502 -710 1246 -1540 137 -154 298 -334 356 -400 138 -155 272 -284 334 -320 28 -16 64 -39 80 -51 56 -40 94 -54 207 -74 140 -25 176 -25 264 -2 109 29 217 88 308 170 44 40 200 172 346 294 674 564 868 774 1277 1389 261 390 484 778 572 994 18 44 38 94 46 110 55 123 58 361 6 614 -39 188 -71 261 -150 340 -135 135 -489 332 -829 462 -321 122 -668 193 -1207 245 -224 22 -943 27 -1165 9z m500 -3344 c23 -12 45 -37 63 -72 25 -47 28 -62 24 -114 -10 -130 -96 -211 -181 -171 -119 56 -152 197 -74 312 42 62 106 79 168 45z m678 -20 c93 -66 91 -257 -2 -324 -47 -33 -117 -30 -157 9 -72 67 -88 164 -41 254 45 88 127 113 200 61z"/>
 </g>
<g id="layer3" fill="#05221c" stroke="none">
 <path d="M4125 6635 c-52 -26 -95 -108 -95 -180 0 -82 41 -146 116 -181 85 -40 171 41 181 171 4 52 1 67 -24 114 -43 81 -109 110 -178 76z"/>
 <path d="M4780 6622 c-46 -24 -90 -108 -90 -171 0 -56 27 -116 69 -155 25 -24 40 -30 78 -30 64 -1 103 28 133 96 67 157 -59 331 -190 260z"/>
 <path d="M1206 6223 c-48 -12 -236 -108 -311 -158 -198 -131 -292 -290 -325 -545 -31 -241 -18 -913 29 -1605 l8 -120 73 -130 c137 -246 340 -531 441 -619 94 -82 183 -103 285 -68 134 47 258 155 372 326 115 171 171 310 203 501 18 103 18 730 1 935 -46 541 -124 880 -265 1153 -52 102 -114 168 -224 242 -122 83 -207 108 -287 88z m238 -1922 c110 -54 198 -173 231 -313 53 -224 -50 -470 -233 -560 -60 -30 -75 -33 -152 -33 -107 0 -176 30 -253 107 -188 190 -194 509 -14 714 108 122 276 157 421 85z"/>
 <path d="M7675 6113 c-41 -11 -199 -85 -251 -118 -159 -102 -241 -233 -313 -505 -77 -290 -141 -863 -157 -1425 -19 -637 53 -806 444 -1044 179 -109 185 -109 335 -37 109 52 163 101 284 257 228 295 312 482 333 744 15 178 40 798 47 1135 6 309 -2 447 -34 548 -28 91 -213 281 -356 366 -110 65 -252 99 -332 79z m-15 -1849 c255 -76 372 -433 224 -681 -50 -82 -99 -129 -174 -166 -56 -28 -75 -32 -145 -32 -71 0 -88 4 -147 33 -110 54 -187 156 -223 297 -38 149 4 323 106 439 94 107 230 148 359 110z"/>
 </g>
<g id="layer4" fill="#ffffff" stroke="none">
 <path d="M1193 4326 c-103 -34 -182 -104 -241 -214 -106 -198 -70 -453 85 -610 77 -77 146 -107 253 -107 77 0 92 3 152 33 77 38 138 100 186 189 162 304 -17 705 -321 719 -43 3 -89 -2 -114 -10z"/>
 <path d="M7473 4265 c-137 -42 -236 -157 -278 -320 -53 -206 46 -440 223 -527 59 -29 76 -33 147 -33 70 0 89 4 145 32 255 126 320 505 125 731 -95 110 -238 156 -362 117z"/>
 </g>

</svg>